<svg xmlns="http://www.w3.org/2000/svg" viewBox="0 0 900 560" role="img" aria-label="Animated checkout and inventory illustration">
  <style>.bg{fill:#09090b}.card{fill:#111827;stroke:#38bdf8;stroke-opacity:.35;stroke-width:2}.skin{fill:#d6a47a}.shirt{fill:#38bdf8}.blue{fill:#38bdf8}.teal{fill:#2dd4bf}.float{animation:float 4.8s ease-in-out infinite}.pulse{animation:pulse 2.4s ease-in-out infinite}.slide{animation:slide 3.2s ease-in-out infinite}@keyframes float{0%,100%{transform:translateY(0)}50%{transform:translateY(-15px)}}@keyframes pulse{0%,100%{opacity:.38}50%{opacity:1}}@keyframes slide{0%,100%{transform:translateX(0)}50%{transform:translateX(28px)}}</style>
  <rect class="bg" width="900" height="560"/><circle cx="500" cy="250" r="235" fill="#38bdf8" opacity=".1"/>
  <g class="float"><rect class="card" x="420" y="95" width="300" height="230" rx="24"/><rect class="blue pulse" x="465" y="145" width="105" height="18" rx="9"/><rect fill="#334155" x="465" y="190" width="195" height="16" rx="8"/><rect fill="#334155" x="465" y="230" width="150" height="16" rx="8"/><rect class="teal slide" x="465" y="270" width="130" height="34" rx="17"/></g>
  <g class="float"><rect class="card" x="600" y="350" width="170" height="110" rx="20"/><rect class="blue pulse" x="630" y="380" width="110" height="14" rx="7"/><rect fill="#334155" x="630" y="415" width="80" height="14" rx="7"/></g>
  <g><ellipse cx="270" cy="475" rx="120" ry="24" fill="#000" opacity=".35"/><circle class="skin" cx="265" cy="182" r="54"/><path fill="#18181b" d="M210 178c7-47 45-75 90-60 29 10 49 31 51 62-39-17-82-18-141-2z"/><path class="shirt" d="M178 430c8-118 43-188 88-188s81 70 92 188z"/><path class="skin" d="M340 300c55 20 92 52 112 92l-29 21c-23-30-55-54-96-72z"/><path class="skin" d="M190 300c-49 32-77 69-82 110h35c13-32 34-57 66-75z"/></g>
</svg>
